<?xml version="1.0" encoding="UTF-8" standalone="no"?>
<!-- Created with Inkscape (http://www.inkscape.org/) -->

<svg
   width="121.79106mm"
   height="119.9147mm"
   viewBox="0 0 121.79106 119.9147"
   version="1.1"
   id="svg135"
   inkscape:export-filename="icons.svg"
   inkscape:export-xdpi="25.026468"
   inkscape:export-ydpi="25.026468"
   xmlns:inkscape="http://www.inkscape.org/namespaces/inkscape"
   xmlns:sodipodi="http://sodipodi.sourceforge.net/DTD/sodipodi-0.dtd"
   xmlns="http://www.w3.org/2000/svg"
   xmlns:svg="http://www.w3.org/2000/svg">
  <sodipodi:namedview
     id="namedview137"
     pagecolor="#ffffff"
     bordercolor="#666666"
     borderopacity="1.0"
     inkscape:showpageshadow="2"
     inkscape:pageopacity="0.0"
     inkscape:pagecheckerboard="0"
     inkscape:deskcolor="#d1d1d1"
     inkscape:document-units="mm"
     showgrid="false" />
  <defs
     id="defs132" />
  <g
     inkscape:label="Layer 1"
     inkscape:groupmode="layer"
     id="layer1">
    <path
       style="fill:#e9951c;fill-opacity:1;stroke:#a66c00;stroke-width:1.365;stroke-linecap:butt;stroke-linejoin:miter;stroke-dasharray:none;stroke-opacity:1"
       d="m 61.193325,49.552436 c 0,0 -2.831568,-12.112818 -14.315146,-13.843219 -11.483581,-1.730404 -16.989409,-0.157311 -22.180616,2.988876 -5.191207,3.146187 -6.449682,7.550848 -6.606991,14.157838 -0.157309,6.606992 -1.573093,5.191209 0.786546,15.573623 2.35964,10.382414 2.831568,11.011652 5.663136,17.304025 2.831569,6.292374 5.820445,8.180086 10.539725,11.168962 4.719278,2.988876 18.5625,5.191209 20.922139,5.348519 2.359639,0.15731 14.472457,1.41578 14.472457,1.41578 0,0 4.561972,-2.35964 8.652012,-5.505824 4.090043,-3.146187 11.326273,-12.112818 14.315149,-17.461336 2.988879,-5.348515 4.404661,-10.697032 5.977755,-17.461333 1.573089,-6.7643 3.460809,-10.539724 1.101159,-16.360168 -2.359634,-5.820447 -1.887707,-9.123942 -8.809316,-12.584748 -6.921611,-3.460805 -9.123941,-2.988876 -15.101694,-2.988876 -5.977755,0 -6.606992,0 -10.539724,1.415783 -3.932735,1.415785 -7.393541,1.730404 -9.438561,2.988879 -2.04502,1.258474 -3.460805,2.359638 -3.460805,2.359638 l 0.314618,0.157311"
       id="path555" />
    <path
       style="fill:none;fill-opacity:1;stroke:#583900;stroke-width:0.565;stroke-linejoin:round;stroke-miterlimit:1.9;stroke-dasharray:none;stroke-dashoffset:16.8718;stroke-opacity:1"
       d="m 36.495762,44.04661 c 0.196675,-2.909562 -0.94751,-5.685065 -1.415783,-8.494704 -0.600027,-3.600164 1.002276,-5.59498 -1.887712,-8.966631"
       id="path1283" />
    <path
       style="fill:none;fill-opacity:1;stroke:#583900;stroke-width:0.564999;stroke-linejoin:round;stroke-miterlimit:1.9;stroke-dasharray:none;stroke-dashoffset:16.8718;stroke-opacity:1"
       d="M 28.00106,49.237817 C 16.320328,49.063473 19.152265,44.42987 14.315148,38.383474"
       id="path2482" />
    <path
       style="fill:none;fill-opacity:1;stroke:#583900;stroke-width:0.564999;stroke-linejoin:round;stroke-miterlimit:1.9;stroke-dasharray:none;stroke-dashoffset:16.8718;stroke-opacity:1"
       d="m 24.068326,42.158898 c 0.660989,-2.07229 0.314619,-4.3015 0.314619,-6.449681"
       id="path2484" />
    <path
       style="fill:none;fill-opacity:1;stroke:#583900;stroke-width:0.564999;stroke-linejoin:round;stroke-miterlimit:1.9;stroke-dasharray:none;stroke-dashoffset:16.8718;stroke-opacity:1"
       d="m 42.473517,47.350105 c 2.630871,-3.756273 5.617326,-7.039152 4.876588,-11.48358"
       id="path2486" />
    <path
       style="fill:none;fill-opacity:1;stroke:#583900;stroke-width:0.564999;stroke-linejoin:round;stroke-miterlimit:1.9;stroke-dasharray:none;stroke-dashoffset:16.8718;stroke-opacity:1"
       d="m 44.361229,52.541312 c -3.887711,0.932551 -7.621489,2.399364 -11.326273,3.775424"
       id="path2488" />
    <path
       style="fill:none;fill-opacity:1;stroke:#583900;stroke-width:0.564999;stroke-linejoin:round;stroke-miterlimit:1.9;stroke-dasharray:none;stroke-dashoffset:16.8718;stroke-opacity:1"
       d="m 45.147774,63.552966 c -6.91774,1.181076 -4.282019,0.860314 -7.865464,1.258475"
       id="path2490" />
    <path
       style="fill:none;fill-opacity:1;stroke:#583900;stroke-width:0.564999;stroke-linejoin:round;stroke-miterlimit:1.9;stroke-dasharray:none;stroke-dashoffset:16.8718;stroke-opacity:1"
       d="m 30.832626,58.04714 c -5.057613,0.414645 -4.918449,0.667044 -7.078919,-0.629237"
       id="path2492" />
    <path
       style="fill:none;fill-opacity:1;stroke:#583900;stroke-width:0.564999;stroke-linejoin:round;stroke-miterlimit:1.9;stroke-dasharray:none;stroke-dashoffset:16.8718;stroke-opacity:1"
       d="m 21.865996,57.260592 0.786546,6.292374"
       id="path2494" />
    <path
       style="fill:none;fill-opacity:1;stroke:#583900;stroke-width:0.564999;stroke-linejoin:round;stroke-miterlimit:1.9;stroke-dasharray:none;stroke-dashoffset:16.8718;stroke-opacity:1"
       d="M 31.776482,67.643009 C 29.844817,67.338722 27.043374,68.615818 25.326801,67.32839"
       id="path2496" />
    <path
       style="fill:none;fill-opacity:1;stroke:#583900;stroke-width:0.564999;stroke-linejoin:round;stroke-miterlimit:1.9;stroke-dasharray:none;stroke-dashoffset:16.8718;stroke-opacity:1"
       d="m 32.405719,71.89036 c -2.757839,1.231839 -5.205185,0.858213 -7.550846,-0.314619"
       id="path2498" />
    <path
       style="fill:none;fill-opacity:1;stroke:#583900;stroke-width:0.564999;stroke-linejoin:round;stroke-miterlimit:1.9;stroke-dasharray:none;stroke-dashoffset:16.8718;stroke-opacity:1"
       d="m 36.495762,75.508473 c -3.022272,0.24134 -6.109539,0.47193 -9.123939,0.47193"
       id="path2500" />
    <path
       style="fill:none;fill-opacity:1;stroke:#583900;stroke-width:0.564999;stroke-linejoin:round;stroke-miterlimit:1.9;stroke-dasharray:none;stroke-dashoffset:16.8718;stroke-opacity:1"
       d="M 44.990466,71.261123 C 36.112495,72.59992 37.2379,66.931727 32.405719,63.710274"
       id="path2502" />
    <path
       style="fill:none;fill-opacity:1;stroke:#583900;stroke-width:0.564999;stroke-linejoin:round;stroke-miterlimit:1.9;stroke-dasharray:none;stroke-dashoffset:16.8718;stroke-opacity:1"
       d="m 46.878179,69.37341 c -3.796803,-1.384098 -3.833241,-4.677603 -5.19121,-7.393537"
       id="path2504" />
    <path
       style="fill:none;fill-opacity:1;stroke:#583900;stroke-width:0.564999;stroke-linejoin:round;stroke-miterlimit:1.9;stroke-dasharray:none;stroke-dashoffset:16.8718;stroke-opacity:1"
       d="M 56.945974,61.822562 C 55.935176,58.568383 53.497575,55.857213 51.125529,53.485168"
       id="path2506" />
    <path
       style="fill:none;fill-opacity:1;stroke:#583900;stroke-width:0.564999;stroke-linejoin:round;stroke-miterlimit:1.9;stroke-dasharray:none;stroke-dashoffset:16.8718;stroke-opacity:1"
       d="M 51.597456,62.137181 C 50.140861,59.507659 48.191255,58.206073 46.091631,56.631355"
       id="path2508" />
    <path
       style="fill:none;fill-opacity:1;stroke:#583900;stroke-width:0.564999;stroke-linejoin:round;stroke-miterlimit:1.9;stroke-dasharray:none;stroke-dashoffset:16.8718;stroke-opacity:1"
       d="m 53.485168,50.968219 c -0.276373,-2.535058 -2.681732,-4.419605 -3.775424,-6.60699"
       id="path2510" />
    <path
       style="fill:none;fill-opacity:1;stroke:#583900;stroke-width:0.564999;stroke-linejoin:round;stroke-miterlimit:1.9;stroke-dasharray:none;stroke-dashoffset:16.8718;stroke-opacity:1"
       d="m 57.103284,50.496292 c -0.465251,-2.642499 -0.628822,-6.81646 -3.146186,-8.494704"
       id="path2512" />
    <path
       style="fill:none;fill-opacity:1;stroke:#583900;stroke-width:0.564999;stroke-linejoin:round;stroke-miterlimit:1.9;stroke-dasharray:none;stroke-dashoffset:16.8718;stroke-opacity:1"
       d="M 48.451272,48.136653 C 44.388513,48.698062 41.179884,47.166429 38.068855,44.833156"
       id="path2514" />
    <path
       style="fill:none;fill-opacity:1;stroke:#583900;stroke-width:0.564999;stroke-linejoin:round;stroke-miterlimit:1.9;stroke-dasharray:none;stroke-dashoffset:16.8718;stroke-opacity:1"
       d="M 34.60805,51.125529 C 31.298007,48.569279 27.714172,48.60858 23.753707,48.60858"
       id="path2516" />
    <path
       style="fill:none;fill-opacity:1;stroke:#583900;stroke-width:0.564999;stroke-linejoin:round;stroke-miterlimit:1.9;stroke-dasharray:none;stroke-dashoffset:16.8718;stroke-opacity:1"
       d="M 23.281779,56.002118 C 19.977638,55.300736 14.054334,57.807026 11.011652,55.37288"
       id="path2518" />
    <path
       style="fill:none;fill-opacity:1;stroke:#583900;stroke-width:0.564999;stroke-linejoin:round;stroke-miterlimit:1.9;stroke-dasharray:none;stroke-dashoffset:16.8718;stroke-opacity:1"
       d="m 28.315679,67.800317 c -6.660584,2.287024 -6.600125,0.239398 -10.854344,-1.887712"
       id="path2520" />
    <path
       style="fill:none;fill-opacity:1;stroke:#583900;stroke-width:0.564999;stroke-linejoin:round;stroke-miterlimit:1.9;stroke-dasharray:none;stroke-dashoffset:16.8718;stroke-opacity:1"
       d="m 26.585275,76.45233 c -2.489869,-0.173623 -6.486868,0.252642 -7.865466,-2.045021"
       id="path2522" />
    <path
       style="fill:none;fill-opacity:1;stroke:#583900;stroke-width:0.564999;stroke-linejoin:round;stroke-miterlimit:1.9;stroke-dasharray:none;stroke-dashoffset:16.8718;stroke-opacity:1"
       d="m 29.731462,82.902011 c -2.738239,0.891048 -7.717338,1.249294 -10.067797,-1.101164"
       id="path2524" />
    <path
       style="fill:none;fill-opacity:1;stroke:#583900;stroke-width:0.564999;stroke-linejoin:round;stroke-miterlimit:1.9;stroke-dasharray:none;stroke-dashoffset:16.8718;stroke-opacity:1"
       d="m 41.215042,84.160486 c -2.574224,1.132417 -7.550848,2.399631 -7.550848,-1.573093"
       id="path2526" />
    <path
       style="fill:none;fill-opacity:1;stroke:#583900;stroke-width:0.564999;stroke-linejoin:round;stroke-miterlimit:1.9;stroke-dasharray:none;stroke-dashoffset:16.8718;stroke-opacity:1"
       d="M 49.395125,79.755824 C 47.13661,77.039226 42.25591,76.234723 39.956568,73.93538"
       id="path2528" />
    <path
       style="fill:none;fill-opacity:1;stroke:#583900;stroke-width:0.564999;stroke-linejoin:round;stroke-miterlimit:1.9;stroke-dasharray:none;stroke-dashoffset:16.8718;stroke-opacity:1"
       d="m 49.080507,73.778072 c -0.0033,-1.899028 -0.891591,-2.761885 -1.88771,-4.090043"
       id="path2530" />
    <path
       style="fill:none;fill-opacity:1;stroke:#583900;stroke-width:0.564999;stroke-linejoin:round;stroke-miterlimit:1.9;stroke-dasharray:none;stroke-dashoffset:16.8718;stroke-opacity:1"
       d="m 57.88983,71.261123 c -1.689693,-3.7957 -4.829445,-4.38109 -8.022775,-5.977755"
       id="path2532" />
    <path
       style="fill:none;fill-opacity:1;stroke:#583900;stroke-width:0.564999;stroke-linejoin:round;stroke-miterlimit:1.9;stroke-dasharray:none;stroke-dashoffset:16.8718;stroke-opacity:1"
       d="M 64.024893,67.800317 C 61.233483,66.314666 59.819521,63.77855 58.990994,60.878706"
       id="path2534" />
    <path
       style="fill:none;fill-opacity:1;stroke:#583900;stroke-width:0.564999;stroke-linejoin:round;stroke-miterlimit:1.9;stroke-dasharray:none;stroke-dashoffset:16.8718;stroke-opacity:1"
       d="M 62.137181,37.911547 C 66.876307,30.89062 65.629728,34.03455 67.17108,29.102224"
       id="path2536" />
    <path
       style="fill:none;fill-opacity:1;stroke:#583900;stroke-width:0.564999;stroke-linejoin:round;stroke-miterlimit:1.9;stroke-dasharray:none;stroke-dashoffset:16.8718;stroke-opacity:1"
       d="m 73.778072,39.012711 c 3.238074,-2.595713 3.303495,-3.905287 3.303495,-7.078919"
       id="path2538" />
    <path
       style="fill:none;fill-opacity:1;stroke:#583900;stroke-width:0.564999;stroke-linejoin:round;stroke-miterlimit:1.9;stroke-dasharray:none;stroke-dashoffset:16.8718;stroke-opacity:1"
       d="m 77.868112,40.900424 c 2.929274,-1.511859 7.23623,-3.525811 7.23623,-7.393538"
       id="path2540" />
    <path
       style="fill:none;fill-opacity:1;stroke:#583900;stroke-width:0.564999;stroke-linejoin:round;stroke-miterlimit:1.9;stroke-dasharray:none;stroke-dashoffset:16.8718;stroke-opacity:1"
       d="m 86.992054,42.630825 c 2.199338,-0.992108 4.682252,-1.977922 6.449682,-3.303495"
       id="path2542" />
    <path
       style="fill:none;fill-opacity:1;stroke:#583900;stroke-width:0.564999;stroke-linejoin:round;stroke-miterlimit:1.9;stroke-dasharray:none;stroke-dashoffset:16.8718;stroke-opacity:1"
       d="m 84.003178,50.024363 c -1.575972,-1.011026 -5.977755,0.150505 -5.977755,-2.359639"
       id="path2544" />
    <path
       style="fill:none;fill-opacity:1;stroke:#583900;stroke-width:0.564999;stroke-linejoin:round;stroke-miterlimit:1.9;stroke-dasharray:none;stroke-dashoffset:16.8718;stroke-opacity:1"
       d="m 83.059322,45.147774 c 2.900426,-1.615828 4.950036,-4.11635 6.135063,-7.078919"
       id="path2546" />
    <path
       style="fill:none;fill-opacity:1;stroke:#583900;stroke-width:0.564999;stroke-linejoin:round;stroke-miterlimit:1.9;stroke-dasharray:none;stroke-dashoffset:16.8718;stroke-opacity:1"
       d="m 92.969809,33.664194 c 0.642932,-0.586756 0.733819,-1.309894 0.943856,-2.04502"
       id="path2548" />
    <path
       style="fill:none;fill-opacity:1;stroke:#583900;stroke-width:0.564999;stroke-linejoin:round;stroke-miterlimit:1.9;stroke-dasharray:none;stroke-dashoffset:16.8718;stroke-opacity:1"
       d="m 75.508473,41.057732 c 1.086184,-0.868945 1.528149,-1.033746 2.202331,-2.045021 0.281517,-0.422275 -0.164618,-1.393856 0,-1.887712 0.480616,-1.441844 2.038099,-2.660411 2.674258,-3.932732"
       id="path2550" />
    <path
       style="fill:none;fill-opacity:1;stroke:#583900;stroke-width:0.564999;stroke-linejoin:round;stroke-miterlimit:1.9;stroke-dasharray:none;stroke-dashoffset:16.8718;stroke-opacity:1"
       d="m 64.65413,47.507416 c 2.805962,-2.257086 3.146187,-5.514578 3.146187,-8.809323"
       id="path2552" />
    <path
       style="fill:none;fill-opacity:1;stroke:#583900;stroke-width:0.564999;stroke-linejoin:round;stroke-miterlimit:1.9;stroke-dasharray:none;stroke-dashoffset:16.8718;stroke-opacity:1"
       d="m 73.463453,55.37288 c 2.231396,-0.08733 3.706239,-3.034998 5.663134,-1.730401"
       id="path2554" />
    <path
       style="fill:none;fill-opacity:1;stroke:#583900;stroke-width:0.564999;stroke-linejoin:round;stroke-miterlimit:1.9;stroke-dasharray:none;stroke-dashoffset:16.8718;stroke-opacity:1"
       d="m 70.002648,50.496292 c 1.567384,0.461558 5.761074,-1.163037 7.23623,-1.730404"
       id="path2556" />
    <path
       style="fill:none;fill-opacity:1;stroke:#583900;stroke-width:0.564999;stroke-linejoin:round;stroke-miterlimit:1.9;stroke-dasharray:none;stroke-dashoffset:16.8718;stroke-opacity:1"
       d="m 80.227754,62.60911 c 4.164041,-1.278694 6.317022,-1.887712 10.067795,-1.887712"
       id="path2558" />
    <path
       style="fill:none;fill-opacity:1;stroke:#583900;stroke-width:0.564999;stroke-linejoin:round;stroke-miterlimit:1.9;stroke-dasharray:none;stroke-dashoffset:16.8718;stroke-opacity:1"
       d="m 91.082097,54.586335 c 4.747466,0.602247 6.287876,0.68467 9.438553,-1.415785"
       id="path2560" />
    <path
       style="fill:none;fill-opacity:1;stroke:#583900;stroke-width:0.564999;stroke-linejoin:round;stroke-miterlimit:1.9;stroke-dasharray:none;stroke-dashoffset:16.8718;stroke-opacity:1"
       d="m 90.924786,49.867055 c 1.897777,-0.376965 3.808775,-0.411523 5.033899,-2.04502"
       id="path2562" />
    <path
       style="fill:none;fill-opacity:1;stroke:#583900;stroke-width:0.564999;stroke-linejoin:round;stroke-miterlimit:1.9;stroke-dasharray:none;stroke-dashoffset:16.8718;stroke-opacity:1"
       d="m 83.688559,73.778072 c 2.405385,0.434692 4.947074,-0.08683 6.60699,1.573093"
       id="path2564" />
    <path
       style="fill:none;fill-opacity:1;stroke:#583900;stroke-width:0.564999;stroke-linejoin:round;stroke-miterlimit:1.9;stroke-dasharray:none;stroke-dashoffset:16.8718;stroke-opacity:1"
       d="m 89.194385,65.912605 c 2.677991,4.2e-5 5.354407,-0.266668 8.022775,-0.471927"
       id="path2566" />
    <path
       style="fill:none;fill-opacity:1;stroke:#583900;stroke-width:0.564999;stroke-linejoin:round;stroke-miterlimit:1.9;stroke-dasharray:none;stroke-dashoffset:16.8718;stroke-opacity:1"
       d="m 94.857521,61.822562 c 4.384926,-0.362614 4.495541,-0.584949 7.393539,-2.516949"
       id="path2568" />
    <path
       style="fill:none;fill-opacity:1;stroke:#583900;stroke-width:0.564999;stroke-linejoin:round;stroke-miterlimit:1.9;stroke-dasharray:none;stroke-dashoffset:16.8718;stroke-opacity:1"
       d="m 96.430615,68.901481 c 1.587822,-0.04064 3.302312,0.252169 4.719275,-0.314619"
       id="path2570" />
    <path
       style="fill:none;fill-opacity:1;stroke:#583900;stroke-width:0.564999;stroke-linejoin:round;stroke-miterlimit:1.9;stroke-dasharray:none;stroke-dashoffset:16.8718;stroke-opacity:1"
       d="m 89.037074,76.295021 c 2.396517,-0.4084 5.668367,1.254988 7.550849,0"
       id="path2572" />
    <path
       style="fill:none;fill-opacity:1;stroke:#583900;stroke-width:0.564999;stroke-linejoin:round;stroke-miterlimit:1.9;stroke-dasharray:none;stroke-dashoffset:16.8718;stroke-opacity:1"
       d="m 94.700211,72.362287 c 2.848273,0.938088 5.686899,0.368038 8.180089,-0.629238"
       id="path2574" />
    <path
       style="fill:none;fill-opacity:1;stroke:#583900;stroke-width:0.564999;stroke-linejoin:round;stroke-miterlimit:1.9;stroke-dasharray:none;stroke-dashoffset:16.8718;stroke-opacity:1"
       d="m 78.340042,78.340042 c 2.920431,-0.08591 6.59671,0.789974 9.438557,-0.157311"
       id="path2576" />
    <path
       style="fill:none;fill-opacity:1;stroke:#583900;stroke-width:0.564999;stroke-linejoin:round;stroke-miterlimit:1.9;stroke-dasharray:none;stroke-dashoffset:16.8718;stroke-opacity:1"
       d="m 78.340042,72.676905 c 2.866686,0.03721 6.148337,0.146693 8.494704,-1.730401"
       id="path2578" />
    <path
       style="fill:none;fill-opacity:1;stroke:#583900;stroke-width:0.564999;stroke-linejoin:round;stroke-miterlimit:1.9;stroke-dasharray:none;stroke-dashoffset:16.8718;stroke-opacity:1"
       d="m 73.463453,67.17108 c 0.907582,-1.234501 1.975446,-2.582749 3.146187,-3.460806"
       id="path2580" />
    <path
       style="fill:none;fill-opacity:1;stroke:#583900;stroke-width:0.564999;stroke-linejoin:round;stroke-miterlimit:1.9;stroke-dasharray:none;stroke-dashoffset:16.8718;stroke-opacity:1"
       d="m 68.901481,73.620761 c 2.17705,-2.657821 5.480664,-2.919663 8.180086,-4.71928"
       id="path2582" />
    <path
       style="fill:none;fill-opacity:1;stroke:#583900;stroke-width:0.564999;stroke-linejoin:round;stroke-miterlimit:1.9;stroke-dasharray:none;stroke-dashoffset:16.8718;stroke-opacity:1"
       d="m 71.103812,60.092161 c 2.391854,-1.983777 2.298663,-1.793815 3.932735,-2.202331"
       id="path2584" />
    <path
       style="fill:none;fill-opacity:1;stroke:#583900;stroke-width:0.564999;stroke-linejoin:round;stroke-miterlimit:1.9;stroke-dasharray:none;stroke-dashoffset:16.8718;stroke-opacity:1"
       d="m 80.070443,59.462923 c 3.030138,-1.233008 4.176559,-3.983852 5.820447,-6.449681"
       id="path2586" />
    <path
       style="fill:none;fill-opacity:1;stroke:#583900;stroke-width:0.564999;stroke-linejoin:round;stroke-miterlimit:1.9;stroke-dasharray:none;stroke-dashoffset:16.8718;stroke-opacity:1"
       d="m 87.463981,57.575211 c 1.808101,-0.598683 2.452155,-1.350989 3.618116,-2.516949"
       id="path2588" />
    <path
       style="fill:none;fill-opacity:1;stroke:#583900;stroke-width:0.564999;stroke-linejoin:round;stroke-miterlimit:1.9;stroke-dasharray:none;stroke-dashoffset:16.8718;stroke-opacity:1"
       d="m 94.228284,44.203918 c 1.718135,-1.569733 3.303495,-3.613234 3.303495,-5.977752"
       id="path2590" />
    <path
       style="fill:none;fill-opacity:1;stroke:#583900;stroke-width:0.564999;stroke-linejoin:round;stroke-miterlimit:1.9;stroke-dasharray:none;stroke-dashoffset:16.8718;stroke-opacity:1"
       d="m 98.161016,46.248941 c 1.933724,-0.725437 2.794344,-0.736915 3.775424,-2.045023"
       id="path2592" />
    <path
       style="fill:none;fill-opacity:1;stroke:#583900;stroke-width:0.564999;stroke-linejoin:round;stroke-miterlimit:1.9;stroke-dasharray:none;stroke-dashoffset:16.8718;stroke-opacity:1"
       d="m 100.04873,52.698623 c 0.58232,0.504338 3.98372,-1.707309 4.40466,-1.887712"
       id="path2594" />
    <path
       style="fill:none;fill-opacity:1;stroke:#583900;stroke-width:0.564999;stroke-linejoin:round;stroke-miterlimit:1.9;stroke-dasharray:none;stroke-dashoffset:16.8718;stroke-opacity:1"
       d="m 87.149365,35.394598 c 2.648659,-1.264883 4.171521,-3.298317 5.348515,-5.820447"
       id="path2596" />
    <path
       style="fill:none;fill-opacity:1;stroke:#583900;stroke-width:0.564999;stroke-linejoin:round;stroke-miterlimit:1.9;stroke-dasharray:none;stroke-dashoffset:16.8718;stroke-opacity:1"
       d="m 64.182204,37.596929 c 1.743511,-1.67422 3.640108,-4.17802 4.24735,-6.606993"
       id="path2598" />
    <path
       style="fill:none;fill-opacity:1;stroke:#583900;stroke-width:0.564999;stroke-linejoin:round;stroke-miterlimit:1.9;stroke-dasharray:none;stroke-dashoffset:16.8718;stroke-opacity:1"
       d="m 72.362287,35.394598 c 0.151606,-2.525961 1.608672,-4.704284 2.20233,-7.078919"
       id="path2600" />
    <path
       style="fill:none;fill-opacity:1;stroke:#583900;stroke-width:0.564999;stroke-linejoin:round;stroke-miterlimit:1.9;stroke-dasharray:none;stroke-dashoffset:16.8718;stroke-opacity:1"
       d="M 60.249469,38.226166 C 58.332404,37.486055 59.79093,28.979503 58.04714,31.304555"
       id="path2602" />
    <path
       style="fill:none;fill-opacity:1;stroke:#583900;stroke-width:0.564999;stroke-linejoin:round;stroke-miterlimit:1.9;stroke-dasharray:none;stroke-dashoffset:16.8718;stroke-opacity:1"
       d="M 32.720338,39.32733 C 31.306931,37.563639 31.303595,35.109327 30.360699,33.034956"
       id="path2604" />
    <path
       style="fill:none;fill-opacity:1;stroke:#583900;stroke-width:0.564999;stroke-linejoin:round;stroke-miterlimit:1.9;stroke-dasharray:none;stroke-dashoffset:16.8718;stroke-opacity:1"
       d="m 50.181673,92.340572 c -2.119018,-0.35401 -7.444433,1.31168 -9.753179,0.157308"
       id="path2606" />
    <path
       style="fill:none;fill-opacity:1;stroke:#583900;stroke-width:0.564999;stroke-linejoin:round;stroke-miterlimit:1.9;stroke-dasharray:none;stroke-dashoffset:16.8718;stroke-opacity:1"
       d="m 49.709744,86.992054 c -1.455843,0.294579 -4.526645,0.770533 -5.033896,-1.258475"
       id="path2608" />
    <path
       style="fill:none;fill-opacity:1;stroke:#583900;stroke-width:0.564999;stroke-linejoin:round;stroke-miterlimit:1.9;stroke-dasharray:none;stroke-dashoffset:16.8718;stroke-opacity:1"
       d="M 38.698093,93.756354 C 31.255697,92.588497 32.40225,93.818817 30.04608,90.45286"
       id="path2610" />
    <path
       style="fill:none;fill-opacity:1;stroke:#583900;stroke-width:0.564999;stroke-linejoin:round;stroke-miterlimit:1.9;stroke-dasharray:none;stroke-dashoffset:16.8718;stroke-opacity:1"
       d="m 45.777012,98.003705 c -1.522558,-0.0042 -4.68576,0.814057 -5.977755,1.101167"
       id="path2612" />
    <path
       style="fill:none;fill-opacity:1;stroke:#583900;stroke-width:0.564999;stroke-linejoin:round;stroke-miterlimit:1.9;stroke-dasharray:none;stroke-dashoffset:16.8718;stroke-opacity:1"
       d="m 54.114406,98.947561 c -2.060329,1.200179 -4.616135,2.340179 -6.60699,3.303499"
       id="path2614" />
    <path
       style="fill:none;fill-opacity:1;stroke:#583900;stroke-width:0.564999;stroke-linejoin:round;stroke-miterlimit:1.9;stroke-dasharray:none;stroke-dashoffset:16.8718;stroke-opacity:1"
       d="m 60.564087,93.913665 c -1.800833,-0.228161 -10.355299,0.02175 -9.438558,-4.561972"
       id="path2616" />
    <path
       style="fill:none;fill-opacity:1;stroke:#583900;stroke-width:0.564999;stroke-linejoin:round;stroke-miterlimit:1.9;stroke-dasharray:none;stroke-dashoffset:16.8718;stroke-opacity:1"
       d="M 55.058262,83.373941 C 51.309539,84.140261 50.6536,83.811895 50.6536,80.385062"
       id="path2618" />
    <path
       style="fill:none;fill-opacity:1;stroke:#583900;stroke-width:0.564999;stroke-linejoin:round;stroke-miterlimit:1.9;stroke-dasharray:none;stroke-dashoffset:16.8718;stroke-opacity:1"
       d="m 59.148305,77.710804 c -0.560097,-4.294063 -0.0041,-2.495417 -1.258475,-5.505825"
       id="path2620" />
    <path
       style="fill:none;fill-opacity:1;stroke:#583900;stroke-width:0.564999;stroke-linejoin:round;stroke-miterlimit:1.9;stroke-dasharray:none;stroke-dashoffset:16.8718;stroke-opacity:1"
       d="m 68.586862,88.250529 c 7.403468,-3.606819 4.44422,-1.467117 9.28125,-5.820444"
       id="path2622" />
    <path
       style="fill:none;fill-opacity:1;stroke:#583900;stroke-width:0.564999;stroke-linejoin:round;stroke-miterlimit:1.9;stroke-dasharray:none;stroke-dashoffset:16.8718;stroke-opacity:1"
       d="m 83.688559,89.666312 c 1.520656,-1.520656 3.041314,-3.041312 4.56197,-4.56197"
       id="path2624" />
    <path
       style="fill:none;fill-opacity:1;stroke:#583900;stroke-width:0.564999;stroke-linejoin:round;stroke-miterlimit:1.9;stroke-dasharray:none;stroke-dashoffset:16.8718;stroke-opacity:1"
       d="m 72.834216,83.059322 c 4.979032,-2.918743 3.223646,-1.527125 5.663134,-3.618116"
       id="path2626" />
    <path
       style="fill:none;fill-opacity:1;stroke:#583900;stroke-width:0.564999;stroke-linejoin:round;stroke-miterlimit:1.9;stroke-dasharray:none;stroke-dashoffset:16.8718;stroke-opacity:1"
       d="m 71.89036,77.238878 c 1.529948,-1.183307 2.330569,-2.25602 3.303495,-3.618117"
       id="path2628" />
    <path
       style="fill:none;fill-opacity:1;stroke:#583900;stroke-width:0.564999;stroke-linejoin:round;stroke-miterlimit:1.9;stroke-dasharray:none;stroke-dashoffset:16.8718;stroke-opacity:1"
       d="m 62.451799,85.418961 c -2.562418,0.196141 -5.009737,-0.199665 -7.550845,-0.471927"
       id="path2630" />
    <path
       style="fill:none;fill-opacity:1;stroke:#583900;stroke-width:0.564999;stroke-linejoin:round;stroke-miterlimit:1.9;stroke-dasharray:none;stroke-dashoffset:16.8718;stroke-opacity:1"
       d="m 61.979873,92.183261 c -3.410749,0 -1.891589,0.08545 -4.56197,-0.157308"
       id="path2632" />
    <path
       style="fill:none;fill-opacity:1;stroke:#583900;stroke-width:0.564999;stroke-linejoin:round;stroke-miterlimit:1.9;stroke-dasharray:none;stroke-dashoffset:16.8718;stroke-opacity:1"
       d="M 65.440678,99.576799 C 62.156718,98.7809 59.859711,97.326719 57.88983,94.700211"
       id="path2634" />
    <path
       style="fill:none;fill-opacity:1;stroke:#583900;stroke-width:0.564999;stroke-linejoin:round;stroke-miterlimit:1.9;stroke-dasharray:none;stroke-dashoffset:16.8718;stroke-opacity:1"
       d="M 66.856461,93.284428 C 64.198094,90.810833 63.135628,87.128529 61.822562,83.845867"
       id="path2636" />
    <path
       style="fill:none;fill-opacity:1;stroke:#583900;stroke-width:0.564999;stroke-linejoin:round;stroke-miterlimit:1.9;stroke-dasharray:none;stroke-dashoffset:16.8718;stroke-opacity:1"
       d="m 63.395655,80.070443 c -1.396756,-2.739906 -2.24705,-5.68471 -2.988876,-8.652012"
       id="path2638" />
    <path
       style="fill:none;fill-opacity:1;stroke:#583900;stroke-width:0.564999;stroke-linejoin:round;stroke-miterlimit:1.9;stroke-dasharray:none;stroke-dashoffset:16.8718;stroke-opacity:1"
       d="M 66.856461,77.710804 C 63.725474,77.557161 63.862179,75.150622 63.552966,72.676905"
       id="path2640" />
    <path
       style="fill:none;fill-opacity:1;stroke:#583900;stroke-width:0.564999;stroke-linejoin:round;stroke-miterlimit:1.9;stroke-dasharray:none;stroke-dashoffset:16.8718;stroke-opacity:1"
       d="m 71.733049,63.552966 c 0.894728,-2.338065 0.905092,-4.627999 1.101167,-7.078919"
       id="path2642" />
    <path
       style="fill:none;fill-opacity:1;stroke:#583900;stroke-width:0.564999;stroke-linejoin:round;stroke-miterlimit:1.9;stroke-dasharray:none;stroke-dashoffset:16.8718;stroke-opacity:1"
       d="m 67.800317,57.417903 c 1.004665,-1.686271 2.975851,-2.596099 3.303495,-4.561972"
       id="path2644" />
    <path
       style="fill:none;fill-opacity:1;stroke:#583900;stroke-width:0.564999;stroke-linejoin:round;stroke-miterlimit:1.9;stroke-dasharray:none;stroke-dashoffset:16.8718;stroke-opacity:1"
       d="m 72.362287,82.430085 c 4.693181,-1.261282 11.245797,-1.905101 14.629767,-6.135064"
       id="path2646" />
    <path
       style="fill:none;fill-opacity:1;stroke:#583900;stroke-width:0.564999;stroke-linejoin:round;stroke-miterlimit:1.9;stroke-dasharray:none;stroke-dashoffset:16.8718;stroke-opacity:1"
       d="m 84.003178,70.789193 c 0.393218,-3.014686 2.367439,-4.574968 3.775421,-6.921608"
       id="path2648" />
    <path
       style="fill:none;fill-opacity:1;stroke:#583900;stroke-width:0.564999;stroke-linejoin:round;stroke-miterlimit:1.9;stroke-dasharray:none;stroke-dashoffset:16.8718;stroke-opacity:1"
       d="m 80.227754,86.677435 c 3.492513,-0.638582 7.54779,-1.308872 10.539724,-3.303494"
       id="path2650" />
    <path
       style="fill:none;fill-opacity:1;stroke:#583900;stroke-width:0.564999;stroke-linejoin:round;stroke-miterlimit:1.9;stroke-dasharray:none;stroke-dashoffset:16.8718;stroke-opacity:1"
       d="m 77.081567,90.295549 c 2.0365,-0.917162 3.64373,-2.62609 5.820444,-2.988876"
       id="path2652" />
    <path
       style="fill:none;fill-opacity:1;stroke:#583900;stroke-width:0.564999;stroke-linejoin:round;stroke-miterlimit:1.9;stroke-dasharray:none;stroke-dashoffset:16.8718;stroke-opacity:1"
       d="m 71.575741,96.902541 c 2.231295,-2.379742 10.435971,0.610264 12.427437,-2.04502"
       id="path2654" />
    <path
       style="fill:none;fill-opacity:1;stroke:#583900;stroke-width:0.564999;stroke-linejoin:round;stroke-miterlimit:1.9;stroke-dasharray:none;stroke-dashoffset:16.8718;stroke-opacity:1"
       d="m 76.766948,92.812498 c 2.676665,-0.251846 6.777149,1.632477 8.180086,-0.471926"
       id="path2656" />
    <path
       style="fill:none;fill-opacity:1;stroke:#583900;stroke-width:0.564999;stroke-linejoin:round;stroke-miterlimit:1.9;stroke-dasharray:none;stroke-dashoffset:16.8718;stroke-opacity:1"
       d="M 73.778072,90.138241 C 78.28472,87.634547 76.880193,88.92383 78.65466,87.149365"
       id="path2658" />
    <path
       style="fill:none;fill-opacity:1;stroke:#583900;stroke-width:0.564999;stroke-linejoin:round;stroke-miterlimit:1.9;stroke-dasharray:none;stroke-dashoffset:16.8718;stroke-opacity:1"
       d="m 72.362287,99.104872 c 1.319606,1.436988 7.236229,-0.642813 7.236229,2.202328"
       id="path2660" />
    <path
       style="fill:#3f320d;fill-opacity:1;stroke:#a12200;stroke-width:0.665;stroke-linecap:butt;stroke-linejoin:miter;stroke-dasharray:none;stroke-opacity:1"
       d="m 53.642479,37.596929 c 0,0 -1.573093,-3.303498 -5.033899,-7.708159 -3.460806,-4.40466 -7.393538,-8.809321 -8.966631,-9.753177 -1.573094,-0.943856 -2.831568,-2.045021 -2.831568,-2.045021 0,0 1.415785,-3.303496 4.71928,-3.303496 3.303495,0 4.090043,0.157309 4.090043,0.157309 0,0 6.135063,8.180085 7.236227,13.528602 1.101167,5.348518 1.887712,8.022775 1.887712,8.022775 l -1.415783,0.314619"
       id="path2662" />
  </g>
</svg>
